<svg width="1440" height="288" viewBox="0 0 1440 288" fill="none" xmlns="http://www.w3.org/2000/svg">
<ellipse cx="-75.1222" cy="210.515" rx="97.8778" ry="101.762" fill="white"/>
<ellipse cx="70.9177" cy="142.156" rx="139.825" ry="142.156" fill="white"/>
<ellipse cx="230.163" cy="160.022" rx="98.6546" ry="94.7706" fill="white"/>
<ellipse cx="351.345" cy="226.828" rx="98.6546" ry="85.4489" fill="white"/>
<rect x="-78.2294" y="231.489" width="450.549" height="80.788" fill="white"/>
<ellipse cx="516.878" cy="260.515" rx="97.8778" ry="101.762" fill="white"/>
<ellipse cx="679.5" cy="227" rx="99.5" ry="96" fill="white"/>
<ellipse cx="822.163" cy="210.022" rx="98.6546" ry="94.7706" fill="white"/>
<ellipse cx="943.345" cy="276.828" rx="98.6546" ry="85.4489" fill="white"/>
<rect x="513.771" y="281.489" width="450.549" height="80.788" fill="white"/>
<ellipse cx="139.601" cy="141.928" rx="139.601" ry="141.928" transform="matrix(-0.99993 0.0118034 0.0118034 0.99993 1558.2 56.6514)" fill="white"/>
<ellipse cx="98.4963" cy="94.6185" rx="98.4963" ry="94.6185" transform="matrix(-0.99993 0.0118034 0.0118034 0.99993 1352.86 131.08)" fill="white"/>
<ellipse cx="98.5" cy="117.5" rx="98.5" ry="117.5" transform="matrix(-0.99993 0.0118034 0.0118034 0.99993 1212.73 204.74)" fill="white"/>
<path fill-rule="evenodd" clip-rule="evenodd" d="M521.867 241.312C504.041 257.449 481.939 267 458 267C424.905 267 395.32 248.746 375.693 220.072C360.171 229.853 341.604 235.541 321.655 235.541C267.169 235.541 223 193.111 223 140.771C223 88.4302 267.169 46 321.655 46C340.119 46 357.398 50.8727 372.175 59.3524C391.682 27.5764 422.863 7 458 7C497.845 7 532.604 33.4612 551.02 72.7088C560.618 69.6522 570.862 68 581.5 68C635.9 68 680 111.205 680 164.5C680 217.795 635.9 261 581.5 261C559.086 261 538.42 253.665 521.867 241.312Z" fill="white" fill-opacity="0.5"/>
<path fill-rule="evenodd" clip-rule="evenodd" d="M1110.11 253.809C1095.96 267.089 1078.17 275 1058.85 275C1053.43 275 1048.14 274.379 1043.01 273.192C1029.78 310.343 997.946 336.524 960.778 336.524C911.747 336.524 872 290.963 872 234.762C872 178.56 911.747 133 960.778 133C968.017 133 975.053 133.993 981.789 135.867C994.36 99.5375 1024.13 74 1058.85 74C1090.54 74 1118.11 95.2807 1132.24 126.625C1147.12 114.923 1165.56 108 1185.52 108C1234.94 108 1275 150.43 1275 202.771C1275 255.111 1234.94 297.541 1185.52 297.541C1153.84 297.541 1126.01 280.109 1110.11 253.809Z" fill="white" fill-opacity="0.5"/>
</svg>
