<?xml version="1.0" encoding="utf-8"?>
<!-- Generator: Adobe Illustrator 27.5.0, SVG Export Plug-In . SVG Version: 6.00 Build 0)  -->
<svg version="1.1" id="Layer_1" xmlns="http://www.w3.org/2000/svg" xmlns:xlink="http://www.w3.org/1999/xlink" x="0px" y="0px"
	 viewBox="0 0 581 340.9" style="enable-background:new 0 0 581 340.9;" xml:space="preserve">
<style type="text/css">
	.st0{fill:#FFFEFF;}
	.st1{fill:#E435CA;}
	.st2{fill:#2907BC;}
	.st3{fill:#9E20C6;}
	.st4{fill:#D42ECA;}
	.st5{fill:#DF37CA;}
	.st6{fill:#AE2FC7;}
	.st7{fill:#C22BC8;}
	.st8{fill:#AB23C7;}
	.st9{fill:#8B20C2;}
	.st10{fill:#370ABD;}
	.st11{fill:#C92DC9;}
	.st12{fill:#6D13C3;}
	.st13{fill:#5510BE;}
	.st14{fill:#6110C2;}
	.st15{fill:#430ABD;}
	.st16{fill:#B343C9;}
	.st17{fill:#7D17C4;}
	.st18{fill:#5F1E9E;}
	.st19{fill:#A635AE;}
	.st20{fill:#301D9C;}
	.st21{fill:none;}
</style>
<path class="st0" d="M225.7,913.9c-167.2,0-333.8,0-500.5,0.1c-3.7,0-4.6-0.8-4.6-4.6c0.1-158.3,0.1-316.7,0-475
	c0-3.7,0.8-4.6,4.6-4.6c236.3,0.1,472.7,0.1,709,0c3.7,0,4.6,0.8,4.6,4.6c-0.1,158.3-0.1,316.7,0,475c0,3.7-0.8,4.6-4.6,4.6
	C364.9,913.9,295.5,913.9,225.7,913.9z"/>
<path class="st1" d="M396.8,185.8c-0.1,0.4-0.1,0.7-0.2,0.8c-0.6,0.6-0.6,1.2-0.9,2c-0.1,0.3-0.2,0.2-0.1,0.2
	c-1.1,0.9-1.1,2.3-1.8,3.8c-0.1,0.3-0.2,0.3-0.2,0.2c-0.3,0.1-0.6,0.3-0.9,0.8c-0.1,0.2-0.1,0.1,0,0.2c-4.9,0.8-8.9-2.3-10.7-8.7
	c0.1-1.2,0-2,0.3-3.2c0.2-0.4,0.2-0.3,0.2-0.3c0.9-0.6,0.5-1.6,0.8-2.8c0.2-0.3,0.2-0.2,0.2-0.2c2.7-6.7,1.4-13.6,0.2-20.7
	c-0.3-0.3-0.2-0.3-0.2-0.2c-0.5-0.8-0.3-1.7-0.8-2.8c-0.3-0.2-0.2-0.2-0.2-0.2c-0.3-0.5-0.4-1.1-0.9-1.9
	c-3.6-5.6-7.2-10.9-12.9-14.8c-0.4-0.6-0.6-0.8-1-1.2c-0.2-0.1-0.1-0.1-0.2-0.1c-0.9-4.4-0.2-8.9-0.4-13.4c0-1.4,0.5-2.2,2.5-2
	c12.7,5.2,20.7,14.4,26,26.6c0.3,0.9,0.4,1.6,0.7,2.4c0.2,0.2,0.4,0.5,0.3,0.6c0.4,1.1,0.3,2.1,0.7,3.3c0.3,0.2,0.2,0.3,0.2,0.2
	c2.2,6.2,1.2,12.7,1.4,19.5c0,1.4,0,2.3-0.2,3.7c-0.1,0.4,0.1,0.6,0,0.7C397.5,180.8,397.6,183.2,396.8,185.8z"/>
<path class="st2" d="M213.8,219.5c-25.9-6.2-42.6-22.2-51.4-46.8c-0.7-2-1.3-4.1-1.9-6.5c0.2-0.5,0.4-0.7,0.9-1
	c3.4-0.1,4.8,2.3,6.7,4.1c4.6,4.4,8.9,9.1,15,12.3c4.6,5.6,9.1,10.8,15.2,15c3.7,6.3,9,10.8,13.8,15.7c1.6,1.6,3.6,2.9,3.9,5.8
	C215.6,219.2,214.8,219.3,213.8,219.5z"/>
<path class="st3" d="M329.8,111.2c-0.2-0.5-0.3-0.7-0.4-1.1c-7-1.6-14.1-0.4-21.6-1c-1.4-5.6-0.6-11-0.9-16.8
	c1.5-3.5,3.3-1.4,4.7-0.5c4.2,2.8,8.4,5.4,12.9,7.7c3.1,1.6,4.7,1.1,4.7-2.7c0-1.4,0.1-3,2.1-4.2c1.4,4.2,0.3,8.5,1,12.9
	c0.3,0.3,0.2,0.3,0.2,0.3c0.7,0.8,1.8,0.4,3,0.8c5.5,6.3,12.9,9.2,19.3,13.4c1,0.6,2.2,0.9,3,2.2c0.1,3,0.1,5.6,0.1,8.6
	c-1.5,3.3-3.8,2.7-5.9,1.6c-7-3.5-13.3-8-20-11.9c-1.3-0.8-1.5-2.1-1.5-3.5C330.6,115.2,330.4,113.4,329.8,111.2z"/>
<path class="st4" d="M345.3,64.3c0.2,0.4,0.4,0.7,0.4,0.9c4.2,2.4,8.7,0.5,13.5,1.3c2.3,4.1,0.9,8.4,1.2,12.9
	c-2.5,4-5.3,2.1-7.8,0.8c-6.1-3.3-12.1-7-17.8-11c-4.1-2.9-9.3-3.8-12.7-8.1c0-8.6,0-8.6,8-8.6c3.8,0,7.6,0.2,11.4,0
	c2.9-0.2,3.8,1,3.6,3.7C344.9,58.6,344.9,61.3,345.3,64.3z"/>
<path class="st5" d="M246.3,57.1c8.7-5.9,18.4-8.5,28.5-9.8c2.2-0.3,2.6,0.6,2.6,2.4c0,0.3,0.1,0.7,0,1c-1.2,4,2.8,9.3-2.2,12
	c-3.7,2-8.2,2.2-12.8,3.2c-1.1,0.1-1.7,0.4-2.7,0.7c-0.2,0.3-0.3,0.2-0.2,0.2C251.1,68.6,247.8,66.2,246.3,57.1z"/>
<path class="st6" d="M332.5,105.3c-2.6-3.2,0.1-7.6-1.5-11.5c-0.1,0.1-0.3,0.2-0.3,0.4c-1.1,2.7,1.6,7.2-1.6,8c-3,0.8-6.4-2-9.4-3.8
	c-3.9-2.4-7.7-5.1-11.9-7.7c-1.4-1.7-0.6-3.5-1-5.6c7.7-2.2,15.6-0.8,23.5-1.1c2.2-0.1,2,1.8,2,3.3C332.4,93.2,332.4,99,332.5,105.3
	z"/>
<path class="st7" d="M303.8,47.6c0.5,1.6,0.5,3,0.5,4.9c-0.4,1.4-0.2,2.4-0.4,3.4c-0.5,3,1.7,7.5-1.4,8.7
	c-4.7,1.7-10.1,1.3-15.1-0.1c-1.6-0.4-1.4-2.1-1.4-3.4c0-3.5,0.1-7,0-10.5c-0.1-2.7,0.9-3.5,3.5-3.4
	C294.1,47.5,298.7,47.2,303.8,47.6z"/>
<path class="st8" d="M345.8,206.6c0.3-0.1,0.5-0.3,0.7-0.3c1.7,2.9,3.4,5.7,5.8,8c1.5,1.5,2.9,3.3,1,5.8c-6.1,0.9-11.9-0.5-18,0.5
	c-5.2-3-8.3-7.4-10.5-12.8c0.1-0.6,0.2-0.9,0.6-1.4c6.3-0.3,12.3-0.4,18.8-0.3C344.9,206.3,345.2,206.4,345.8,206.6z"/>
<path class="st3" d="M325.2,206.7c0.4,4.4,4.3,6.1,6,9.2c0.6,1.1,2,1.8,2.3,3.5c-4.6,2.5-9.5,0.8-14.7,1.4c-1.3,0-2.2,0-3.5-0.2
	c-3.5-2.1-6.1-4.6-8.5-7.3c-1.6-1.7-3-3.6-1.4-6.5c3.6-0.5,7-0.6,10.8-0.6C319.3,206.5,322.1,206.2,325.2,206.7z"/>
<path class="st9" d="M329.6,111.3c0.5,0.2,1.4,1,1.3,1.6c-0.6,7.2,5.6,8.6,9.9,11.5c3.5,2.4,7.3,4.4,11,6.5c1.6,0.9,3.2,1.8,5.4,0.9
	c0.5-0.2,0.7-0.4,1.1-0.3c0.3,0.7,0.3,1.2,0.3,1.9c-6.5,1.5-12.9,0.4-19.7,1.1c-0.4,0.2-0.8,0.4-1,0.4c-0.5,0.1-0.7,0.2-1.4,0.3
	c-3.8-1.7-7.3-3.3-9.9-6.2c-1.5-1.6-3.4-1.8-5.5-1.9c-4.1-0.1-8.3,0.2-12.8-0.3c-0.6-0.2-0.8-0.4-1.4-0.8c5.2-2.3,11-1.3,16.5-1
	c5.2,0.2,6.7-1.5,6-6.3C329.3,116.4,329.5,114.1,329.6,111.3z"/>
<path class="st10" d="M215.6,219c-2.4-5.8-7.7-8.7-11.5-13c-2.3-2.6-4.9-4.8-5.6-8.8c8.4,4.6,17.3,8.2,27.6,8.8
	c0.5,0.3,0.5,0.5,0.3,1c-1.6,1.2-3.4,0.7-5.2,1.6c1.3,2.7,3.7,4.2,5.5,6.2c1.3,1.6,3.2,3,2,5.8c-1.3,0.3-2.4,0.4-3.8,0.3
	c-2.8-0.8-5.3-0.7-8.2-0.9c-0.4-0.1-0.3-0.1-0.3-0.1C216.2,219.7,216,219.5,215.6,219z"/>
<path class="st10" d="M183.4,181.4c-5.9,1.1-7.8-4.7-11.8-7.2c-3.6-2.2-5.6-6.4-9.9-8.5c-1-0.8-0.6-1.7-1.1-2.7
	c-0.3-0.2-0.4-0.4-0.4-0.5c-0.3-3-0.1-6-0.6-9.2c0.5-1.8,1.7-2.5,2.7-1.8c4.7,3.8,10.2,7,13.3,13C177.9,170.4,180,176,183.4,181.4z"
	/>
<path class="st11" d="M383.6,206.4c-1.9,3-4.7,4.5-7.5,6.4c-1.3,0.5-2.2,1.1-3.4,1.9c-0.2,0.2-0.4,0.4-0.5,0.3
	c-5.5,1.7-9.1,0.6-12.2-4.1c-1.7-2.4-2.2-4.9,1.2-7c0.2-0.3,0.3-0.2,0.3-0.3c0.5-0.2,1.1-0.3,1.8-0.8c0.2-0.3,0.2-0.2,0.1-0.2
	c0.3-0.1,0.6-0.2,1-0.7c0.2-0.1,0.2-0.2,0.2-0.2c0.4-0.5,1-0.5,1.8-0.9c0.2-0.2,0.4-0.4,0.5-0.3c0.6,0,1-0.1,1.4-0.8
	c2.5-2.5,4.9-4.8,7.6-7.2c1.9,1,0.9,2.2,0.3,3.3c-2.1,4.2-1.5,5.8,2.6,7.7C380.4,204.5,382.5,204.4,383.6,206.4z"/>
<path class="st12" d="M314.1,219.5c1.1,0.3,1.9,0.3,3,0.3c0.5,0.3,0.5,0.6,0.3,1.1c-6.4,0.4-12.4,0.3-18.8,0.1
	c-9-0.1-17.6,0-26.6-0.1c-0.8-0.5-1.2-0.7-1.9-1.1c-2.4-2.7-4.2-5.4-6.6-7.7c-1.5-1.4-2.3-3.2-1.2-5.6c4.6-0.3,9-0.4,13.8-0.4
	c0.9,0.4,1.2,0.7,1.5,1.2c4.9,8,11.2,13.1,21.7,11C304.3,218.6,309.2,217.4,314.1,219.5z"/>
<path class="st13" d="M177.6,131.6c-0.6,4.1-1.5,7.9-2.6,12c-1.9,5.8-3.4,6.1-8.1,2c-3.6-3.2-6.8-6.5-5.1-12.3
	c0.9-4.7,2.1-8.9,4.7-13.1c0.9-0.3,1.6,0,1.7,0.7C169,126.3,172.8,129.1,177.6,131.6z"/>
<path class="st4" d="M383.8,206.6c-2.3-0.5-4.3-1.1-6.2-1.9c-4.7-2-5.5-5.4-2.3-9.2c0.5-0.6,0.7-1.4,1-2.5c-0.1-0.4,0-0.3,0-0.3
	c0.4-0.1,0.7-0.4,1-1.1c0.1-0.3,0-0.6,0.1-0.7c0.6-0.8,1.1-1.5,1.9-2.4c0.1-0.3,0-0.5,0.1-0.6c0.4-0.3,0.6-0.6,0.9-1.2
	c0.1-0.3,0.1-0.6,0.2-0.8c0.3-0.4,0.5-0.6,0.8-1.1c0.1-0.2,0-0.1,0-0.2c0.2-0.1,0.4-0.3,0.9-0.1c1.6,5.1,5,7.9,10.1,9.3
	C391.6,199.3,387.6,202.7,383.8,206.6z"/>
<path class="st4" d="M246.1,56.8c2.1,1.3,2.1,3.7,3.1,5.5c2.3,4.3,5.1,5.7,10,4.6c-1.9,1.3-4.3,2.6-7,4c-1,0.3-1.6,0.4-2.4,0.9
	c-0.2,0.3-0.2,0.2-0.1,0.2c-0.3,0.1-0.6,0.3-0.9,0.8c-0.1,0.2-0.2,0.1-0.1,0.2c-0.2,0.2-0.5,0.4-0.9,0.8c-0.2,0.2-0.3,0.4-0.5,0.3
	c-0.6,0-0.9,0.2-1.5,0.7c-0.2,0.3-0.2,0.2-0.1,0.2c-0.3,0.2-0.5,0.4-0.9,0.8c-0.1,0.2-0.1,0.1-0.1,0.2c-4.9,1.7-7.7,0.5-10.5-3.5
	c-2.9-4.4,0.3-6.6,3.1-9.4c0.3-0.7,0.5-0.9,1-1.1c0.7-0.5,1.4-0.5,2-1.1C241.8,58.6,243.9,57.9,246.1,56.8z"/>
<path class="st12" d="M178,131.6c-6.9-0.9-10.1-4.3-11.1-11.5c1.1-4.3,3.7-7.6,6.4-11.1c3.1,3.9,6.7,7.1,11.3,9.6
	C182.5,123,179.8,126.9,178,131.6z"/>
<path class="st14" d="M262,206.3c-0.2,3.9,2.9,5.4,4.9,7.7c1.4,1.6,2.3,3.4,3.5,5.5c-4.6,1.4-9.3,0.5-14.4,0.8
	c-5.1-3.4-9.8-6.8-9.9-13.6C251.5,206.3,256.6,206.2,262,206.3z"/>
<path class="st15" d="M254.2,219.6c5.3,0.2,10.3,0.3,15.8,0.3c0.7,0.2,1,0.4,1.4,0.8c-13.9,0.3-27.9,0.4-42.4,0.4
	c-0.3-4.7-4.6-6-6.7-9c-1.1-1.5-3.9-2.4-3-4.5c0.7-1.7,3.3-0.5,5-0.8c0.5-0.1,1,0,1.9,0c0.8-0.3,1.2-0.5,2-0.6
	c1.4-0.1,2.5-0.1,4,0.1c1.7,1,2.1,2.5,3.1,3.7c4.3,4.8,8.2,10.2,16,8.7C252,218.4,253.1,218.7,254.2,219.6z"/>
<path class="st7" d="M237.1,62.7c0.2,0.5,0.3,1.3-0.1,1.8c-1.7,2-4.5,3.5-2.2,6.8c2.2,3.2,4.9,5.2,9.4,4.6c-1.9,2.3-4.2,4.6-6.8,6.9
	c-1.1,0.2-1.4,0.8-1.7,1.8c-0.2,0.6-0.3,0.9-0.8,1.2c-0.5,0.2-0.9,0.4-1.2,1c-0.1,0.3,0,0.2,0,0.3c-5.2-0.1-10.1-5.9-9.5-11.9
	c0.2-0.4,0.2-0.3,0.2-0.3c0.3-0.2,0.5-0.5,0.8-1C228.7,69.5,232.5,65.9,237.1,62.7z"/>
<path class="st15" d="M161.5,133.2c0.7,5,3,9.2,7.3,12.5c2.7,2.1,4.5,2.5,5.6-1.6c0.2,1.5,0.1,3.3,0,5.4c-0.6,1.5-0.4,2.6-0.2,4
	c0.6,3.7,1.2,7,1.7,10.8c-4.9-3.8-9.8-8.1-15.1-12.4c-2.4-2.6-0.6-5.5-1-8.6C159.6,139.6,160.4,136.6,161.5,133.2z"/>
<path class="st16" d="M361,203.6c-0.8,2.2-2.6,4.5-0.1,6.7c2.9,2.6,5.4,6.5,10.8,4.7c-3.7,3.1-8.3,4.7-14,4.9
	c-1.1-0.3-1.6,0-2.3,0.3c-0.6,0.1-1,0.1-1.6-0.2c0.2-3.4-2.4-4.7-4.1-6.6c-1.7-1.8-3.6-3.4-3-6.7C351.3,205.6,356.1,205.2,361,203.6
	z"/>
<path class="st6" d="M224.2,74.9c0.7,5.6,4.4,9,9.2,12c-1.1,2.6-2.6,5.1-4.4,7.8c-6,1.5-13.2-2.8-14.8-8.3c-0.3-1.2-0.4-2.3,1-3.3
	C219.8,81.9,221.4,78,224.2,74.9z"/>
<path class="st9" d="M314.5,219.5c-5,0.3-10,0.3-15.5,0.3c-3-2.1-5.4-4.3-7.4-6.9c-1.3-1.7-2.5-3.5-1.3-6.1
	c4.9-0.4,9.6-0.5,14.7-0.4c-0.4,4.3,2.8,6.3,5.2,8.7C311.6,216.4,313,217.8,314.5,219.5z"/>
<path class="st8" d="M215,82.7c-0.8,5.5,5.6,11.7,13.3,12.2c-0.4,1.4-1.8,1.7-3.5,1.8c-1.9-0.7-3.4-0.5-5.2,0
	c-0.2,0.3-0.4,0.3-0.5,0.2c-1,0.2-2,0.4-3.3,0.5c-0.3,0.2-0.8,0.3-1,0.3c-1,0.6-2.1,0.2-3.2,1.1c-0.8,0.3-1.3,0.3-2.1,0.1
	c-2.4-1.8-4.5-3.4-6.2-5.4c-2.3-2.7-2.6-5.2,0.9-7.7c0.3-0.3,0.5-0.5,0.6-0.4c0.8-0.1,1.5-0.3,2.3-0.7c0.7-0.5,1.2-0.8,2-1
	c0.5,0.1,0.6,0.2,1,0.1c0.2-0.2,0.2-0.2,0.2-0.2c0.7-0.7,1.6-0.4,2.7-0.7C213.9,82.8,214.3,82.7,215,82.7z"/>
<path class="st9" d="M204.5,101.6c-3.1,2.6-6.4,4.9-10.1,7.3c-6.7,1.9-10.2,0-13.9-7.7c2.9-3.6,6.3-6.2,10.4-8.5
	C194.6,96.9,198.3,100.8,204.5,101.6z"/>
<path class="st17" d="M180.1,100.9c3.9,3.6,6.4,9,13.5,8c-2.4,3.3-5.3,6.5-8.5,9.9c-5.2-1.6-10.2-3.2-11.3-9.7
	C175.7,106.2,177.7,103.6,180.1,100.9z"/>
<path class="st13" d="M254.5,219.4c-2,0.4-4,0.4-6,0.4c-6.2,0-14.3-6.4-16-13.1c4.4-0.4,8.8-0.5,13.6-0.5c0.3,4.4,3.8,6.6,6,9.5
	C252.9,216.8,254.7,217.2,254.5,219.4z"/>
<path class="st14" d="M286.2,135.6c-0.3-1.3-0.4-2.6-0.3-4.3c4.7-1.6,9.3-0.7,14.3-0.7c1.1,4.3,0.7,8.4,0.5,12.8
	c-3.8,1.5-7.6,0.7-11.3,0.9c-2.2,0.1-2.8-1.2-2.9-3.1C286.4,139.3,286.9,137.4,286.2,135.6z"/>
<path class="st17" d="M290.1,206.3c0.1,3.8,2.4,6,4.7,8.4c1.3,1.4,3.1,2.4,3.6,4.8c-1.1,0.3-2.3,0.1-3.5,0.4
	c-9.5,2.1-13.3-5.4-18.3-10.8c-0.4-0.4-0.2-1.3-0.3-2.3C280.9,205.6,285.3,206.3,290.1,206.3z"/>
<path class="st3" d="M204.9,101.9c-7.9-0.2-11.3-2.4-13.6-8.9c-0.1-0.4,0-0.3,0-0.3c0.4,0,0.7-0.2,1-0.8c3.4-3.2,7.6-4.3,11.8-6.1
	c-3,4.2-1,7.1,2.6,9.6c1.1,0.7,2.4,1.2,2.7,3.1c0.2,0.5,0.4,0.7,0.3,1.2c-0.3,0.3-0.5,0.5-0.6,0.4c-0.8,0.1-1.5,0.3-2.4,0.7
	c-0.2,0.3-0.2,0.2-0.2,0.2c-0.1,0.1-0.3,0.2-0.8,0.5C205.5,101.6,205.1,101.9,204.9,101.9z"/>
<path class="st16" d="M327.3,38.1c-9.2,0-9.1,0-9.2-9c0-3.7,0.7-5.2,4.9-5.2c9.8,0.2,11.3,1.9,9.4,12
	C331.8,39.3,329.4,37.7,327.3,38.1z"/>
<path class="st18" d="M336.2,135.2c0.5-0.3,0.7-0.3,1.2-0.3c0.2,5.7,0,11.3,0.2,17c0.1,2.9-0.5,4.1-3.8,4c-7.8-0.3-15.7-0.3-23.5,0
	c-3.6,0.1-4-1.3-4-4.3c0.2-8.3,0.1-16.7,0.2-25.5c0.1-0.5,0.5-0.4,0.8-0.4c1.5,1.5,1.5,3.4,1.5,5.6c0.1,3.1,0.1,5.8,0,8.9
	c0,2.4,0,4.4,0,6.4c0,6.4,0.1,6.5,6.8,6.6c3.5,0,7-0.1,10.8,0.1c1,0,1.7,0,2.3,0c6,0,6,0,6.1-6.7C335.1,142.7,334.4,139,336.2,135.2
	z"/>
<path class="st19" d="M345.6,64.3c-2.1-2-0.9-4.9-1-7.6c0-3-1.1-4.1-4.1-4c-4.1,0.2-8.3,0.3-12.3,0c-4.5-0.4-6.5,1.1-5.7,5.7
	c0.1,0.8,0,1.6,0.1,2.9c1.6,2.4,1.3,4.8,1.2,7.1c-0.1,3.1,1.3,4.3,4.2,4.8c3,0.5,6.3-0.3,9.2,2.1c-3.9,0.6-7.8,0.4-11.8,0.6
	c-2.9,0.1-4.2-0.5-4.1-3.8c0.2-5.6,0.2-11.3,0-16.9c-0.1-2.5,0.7-3.6,3.3-3.5c5.8,0.2,11.6,0.2,17.4,0c3-0.1,3.7,1.1,3.6,3.8
	C345.5,58.2,345.7,61,345.6,64.3z"/>
<path class="st19" d="M304.1,47.5c-4.3,0.4-8.8,0.3-13.2,0.4c-1.1,0-3-0.1-3.3,0.4c-2.1,4.3-0.9,9-0.9,13.5c0,2.8,3,2.7,5,2.9
	c10.9,1.3,11.1,1.1,12.3-11.5c1.1,12.6,1.1,12.7-11.8,12.6c-8,0-6.8,1-6.9-6.8c-0.1-12.4,0-12.4,12.2-12.4
	C299.7,46.7,301.8,46.9,304.1,47.5z"/>
<path class="st19" d="M358.7,131.3c-0.3,0.5-0.4,0.5-0.9,0.5c-0.3-3-0.3-6.1-0.3-9.5c-1.9-2.7-1.4-5.4-1.5-8.1
	c-0.2-5.5-0.4-5.7-6-5.9c-4.6-0.2-9.3,0.9-14.1-1.2c-1.2-0.4-2.1-0.6-3.1-1.1c7.1-0.3,14.4-0.1,21.6-0.3c3.4-0.1,4.7,0.8,4.5,4.4
	C358.6,117,358.8,123.9,358.7,131.3z"/>
<path class="st16" d="M359.3,81.1c0.3-4.7,0.3-9,0.3-13.8c0.1-0.7,0.2-0.9,0.6-1.2c2.1,7.2,0.9,14.6,0.6,22.3
	c-1.2-0.4-1.6-1.4-2.1-2.7C358.3,83.9,358.3,82.6,359.3,81.1z"/>
<path class="st20" d="M298.4,221c5.7,0,11.8,0,18.2-0.1c6.6-1.2,12.8-0.4,19.2-0.2C323.7,221.1,311.2,221.1,298.4,221z"/>
<path class="st9" d="M336.9,221.1c-6.7,0.6-12.8,0.3-19.3-0.1c-0.4-0.3-0.3-0.5-0.1-0.9c5.1-0.3,10.1-0.3,15.6-0.3
	c6.8,0,13.2,0,20,0c0.9,0,1.3,0,2.1,0c0.7-0.3,1.1-0.5,1.8-0.2c0.3,0.2,0.4,0.3,0.5,0.3c-2.4,1.9-5.3,0.8-8.6,1.5
	c-0.6,0.1-0.8-0.1-0.8-0.1s-0.3,0-0.5,0.1C344.2,221.3,340.9,221.2,336.9,221.1z"/>
<path class="st19" d="M359.2,85.8c1.2,0.5,1.3,1.3,1.3,2.5c0,0.3,0,0.4-0.1,0.4c-7,1.2-14.1,0.3-21.5,0.3c-2.7-4-0.9-8.2-1.5-12.7
	c0-0.5,0.1-0.5,0.1-0.5c2.1,0,1.9,1.7,2.3,3.4c0.2,7.2,0.2,7.2,9.2,7.2C352.5,86.4,355.7,86.6,359.2,85.8z"/>
<path class="st18" d="M285.9,136.1c0.4-1.4,0.7-2.3,1-3.2c0.2,0.2,0.6,0.3,0.6,0.5c0.3,10.5,0.3,10.5,12.7,10.4
	c-3.8,2.4-8.5,0.6-13.3,0.9c-0.7-0.5-0.8-0.8-0.8-1.5C285.9,140.8,285.9,138.7,285.9,136.1z"/>
<path class="st18" d="M159.5,143.2c1.8,2.1,0.5,5,0.9,8.1c0,3.6,0,6.8-0.1,10.5C158.5,156.2,159.6,149.9,159.5,143.2z"/>
<path class="st11" d="M383.3,158.3c2.9,6.3,3.2,13.1,0.4,20.3C384.6,172.1,385,165.4,383.3,158.3z"/>
<path class="st19" d="M306.6,85.3c1.5,1.1,0.7,3,0.9,5.1c0,6,0,11.7,0,17.8c-0.1,0.7-0.2,0.9-0.6,0.8
	C306.6,101.1,306.5,93.4,306.6,85.3z"/>
<path class="st18" d="M306.8,109.2c-0.2-0.4,0.3-0.4,0.5-0.5c7.3,0.2,14.4,0.4,21.8,0.9C321.9,109.8,314.4,109.7,306.8,109.2z"/>
<path class="st16" d="M338.8,89c6.6-0.2,13.6-0.2,21.1-0.3C353.3,89.9,346.2,89.1,338.8,89z"/>
<path class="st11" d="M398.8,175.1c-0.5-6.7,0.3-13.1-1.2-19.9c3.2,5.7,1.9,12.3,1.9,19.2C399.3,175,399.1,175.1,398.8,175.1z"/>
<path class="st19" d="M369.8,121.4c-2.4,0.4-2.3,2.3-2.3,4.2c0,3.5,0,6.9,0,10.9c-2.2-4.6-0.8-9.9-0.8-15.1
	C366.6,119.1,368.5,120.8,369.8,121.4z"/>
<path class="st17" d="M339,134.8c5.8-2.2,12.3-0.5,19.1-1c-2.5,2.4-6,0.8-9.3,1.1C345.7,135.2,342.6,134.9,339,134.8z"/>
<path class="st19" d="M360,65.9c0.3,0.4,0.1,0.6-0.3,0.9c-4.7-0.4-9.3,0.9-13.9-1C350.3,65.5,354.9,65.6,360,65.9z"/>
<path class="st18" d="M300.5,130.4c-4.4,0.4-9,0.4-14,0.5C290.6,128.3,295.5,130.1,300.5,130.4z"/>
<path class="st20" d="M216.6,220.3c2.3-0.4,4.9-0.8,7.7,0.3C222,220.7,219.4,220.6,216.6,220.3z"/>
<path class="st16" d="M396.9,185.9c-0.7-2.2,0.1-4.5,1.5-6.9C398.7,181.1,398.1,183.4,396.9,185.9z"/>
<path class="st16" d="M325.5,206.8c-2.8,0.1-5.5,0-8.6-0.3c2.4-0.3,5.1-0.4,8.2-0.3C325.6,206.2,325.6,206.6,325.5,206.8z"/>
<path class="st16" d="M394,192.8c-0.6-1.3-0.4-2.7,1.4-3.8C395.7,190.3,395,191.4,394,192.8z"/>
<path class="st20" d="M347.3,221.3c0.4,0.1,0.7,0.1,1,0.1C348.1,220.5,347.6,221.1,347.3,221.3z"/>
<path class="st3" d="M219.8,97c0.8-1.8,2.5-1.4,4.4-0.7C223,96.8,221.6,96.9,219.8,97z"/>
<path class="st16" d="M372.8,214.9c0.2-1.1,0.9-1.9,2.6-2C374.8,213.5,374,214.2,372.8,214.9z"/>
<path class="st13" d="M174.4,153.4c-1.2-0.6-1.1-1.8-0.3-3.3C174.4,150.9,174.4,151.9,174.4,153.4z"/>
<path class="st3" d="M215.9,97.8c0.3-1,1.4-1,2.8-0.9C218.3,97.8,217.3,97.8,215.9,97.8z"/>
<path class="st3" d="M213.1,82.9c-0.2,0.9-1.1,0.9-2.3,0.9C211.3,83.5,212.1,83.2,213.1,82.9z"/>
<path class="st18" d="M160.3,163.2c1,0.1,1.1,0.9,1.1,2.2c0,0.3-0.4,0.4-0.6,0.4C160.5,165.1,160.4,164.3,160.3,163.2z"/>
<path class="st3" d="M211.7,99c0.4-1.2,1.3-1.2,2.6-1.1c0.1,0.7-0.5,1-1.6,1C212.2,98.9,212.1,99.1,211.7,99z"/>
<path class="st11" d="M397.7,154.4c-1.2-0.2-1.2-1.2-1.1-2.6C397,152.3,397.4,153.1,397.7,154.4z"/>
<path class="st9" d="M211.2,98.7c0.3,0,0.8,0,1,0c-0.5,0.4-1.3,0.7-2.4,1.1c-0.3-0.2-0.3-0.4-0.3-0.8
	C210,98.8,210.4,98.8,211.2,98.7z"/>
<path class="st11" d="M379.1,188.4c0.3,0.8-0.2,1.5-1.3,2.3C378,190.1,378.4,189.3,379.1,188.4z"/>
<path class="st20" d="M215.2,218.8c0.5,0.2,0.8,0.5,1.1,1c-0.7,0.2-1.4,0.1-2.4-0.1C214,219.4,214.5,219.1,215.2,218.8z"/>
<path class="st11" d="M382.3,155.2c1.1,0.1,1.2,1,1.1,2.4C382.4,157.4,382.4,156.4,382.3,155.2z"/>
<path class="st11" d="M382.5,184.4c-0.2,0.4-0.4,0.4-0.9,0.3c-0.1-0.9,0.1-1.8,0.5-2.8C382.5,182.5,382.5,183.3,382.5,184.4z"/>
<path class="st11" d="M383.1,178.9c0.2,0.7,0,1.6-0.4,2.7C382.5,180.9,382.7,180,383.1,178.9z"/>
<path class="st16" d="M398.6,175.3c0-0.4,0.4-0.5,0.6-0.5c0.1,1,0.1,2-0.3,3.3C398.6,177.5,398.6,176.6,398.6,175.3z"/>
<path class="st7" d="M249.9,72c-0.1-0.7,0.5-1.1,1.6-1.1C251.3,71.3,250.8,71.6,249.9,72z"/>
<path class="st9" d="M206.9,101c0-0.7,0.6-1.1,1.7-1.1C208.4,100.3,207.8,100.6,206.9,101z"/>
<path class="st6" d="M235.8,84.7c0-0.5,0.3-1.1,0.9-1.8C236.8,83.5,236.4,84,235.8,84.7z"/>
<path class="st16" d="M228.1,206c-0.2,0.3-0.6,0.5-1.3,0.7c-0.3,0-0.3-0.3-0.3-0.5C227,206,227.4,205.9,228.1,206z"/>
<path class="st16" d="M363.1,202.6c-0.2,0.3-0.6,0.7-1.4,1C361.8,203.3,362.3,203,363.1,202.6z"/>
<path class="st16" d="M366.3,200.8c-0.2,0.3-0.6,0.7-1.4,1.1C365.1,201.5,365.5,201.1,366.3,200.8z"/>
<path class="st3" d="M207.1,84.7c0,0.7-0.6,1-1.7,1C205.6,85.3,206.2,85,207.1,84.7z"/>
<path class="st4" d="M259.9,66.9c0-0.7,0.6-1,1.8-1C261.4,66.2,260.8,66.6,259.9,66.9z"/>
<path class="st16" d="M395.9,188.7c-0.1-0.4,0-1,0.4-1.8C396.4,187.4,396.3,188,395.9,188.7z"/>
<path class="st7" d="M240.1,60.5c-0.1,0.3-0.6,0.8-1.3,1.2C238.9,61.4,239.4,61,240.1,60.5z"/>
<path class="st11" d="M381.3,153.2c0.3,0.2,0.7,0.6,1.1,1.4C382.1,154.4,381.7,153.9,381.3,153.2z"/>
<path class="st11" d="M396.5,150.5c-0.3-0.2-0.6-0.8-0.9-1.7C395.9,149.1,396.2,149.6,396.5,150.5z"/>
<path class="st14" d="M285.9,143.2c0.2,0.2,0.4,0.6,0.5,1.2C285.7,144.4,285.8,143.9,285.9,143.2z"/>
<path class="st7" d="M248.8,72.8c-0.1-0.2,0.1-0.5,0.6-0.8C249.5,72.2,249.3,72.5,248.8,72.8z"/>
<path class="st9" d="M205.8,101.6c-0.1-0.3,0.1-0.5,0.7-0.7C206.5,101.1,206.2,101.4,205.8,101.6z"/>
<path class="st16" d="M364.3,201.9c0,0.2-0.2,0.5-0.7,0.7C363.6,202.4,363.8,202.2,364.3,201.9z"/>
<path class="st7" d="M247.7,73.8c-0.1-0.2,0.2-0.5,0.6-0.8C248.4,73.1,248.2,73.4,247.7,73.8z"/>
<path class="st6" d="M225.2,73.7c0.1,0.2-0.1,0.5-0.5,0.9C224.6,74.5,224.8,74.2,225.2,73.7z"/>
<path class="st7" d="M245.9,74.9c0-0.3,0.3-0.6,0.9-0.9C246.8,74.2,246.5,74.5,245.9,74.9z"/>
<path class="st16" d="M345.8,206.3c-0.1,0.2-0.5,0.2-1.1,0.1C344.9,206.2,345.3,206.2,345.8,206.3z"/>
<path class="st7" d="M244.8,75.8c-0.1-0.2,0.1-0.5,0.6-0.9C245.5,75.2,245.3,75.5,244.8,75.8z"/>
<path class="st16" d="M368.1,199.7c0,0.2-0.2,0.6-0.9,1C367.2,200.4,367.5,200.1,368.1,199.7z"/>
<path class="st3" d="M210.2,83.8c0,0.2-0.2,0.3-0.6,0.3C209.7,83.9,209.8,83.8,210.2,83.8z"/>
<path class="st4" d="M392.8,193.9c-0.1-0.2,0.1-0.5,0.6-0.9C393.5,193.2,393.3,193.5,392.8,193.9z"/>
<path class="st11" d="M377.1,191.4c0.1,0.2,0,0.6-0.5,1.2C376.5,192.3,376.7,192,377.1,191.4z"/>
<path class="st11" d="M380.1,186.6c0.1,0.2,0,0.6-0.4,1.1C379.6,187.5,379.7,187.1,380.1,186.6z"/>
<path class="st11" d="M381.1,184.7c0.2,0.3,0.1,0.6-0.4,0.9C380.7,185.5,380.8,185.1,381.1,184.7z"/>
<path class="st6" d="M233.9,86.9c-0.1-0.2,0.1-0.6,0.5-1C234.5,86.2,234.4,86.5,233.9,86.9z"/>
<path class="st19" d="M367.5,137.1c0.2-0.1,0.5,0.1,0.9,0.6C368.2,137.7,367.8,137.5,367.5,137.1z"/>
<path class="st9" d="M192.2,91.7c0.1,0.2-0.1,0.5-0.6,0.9C191.5,92.4,191.7,92.1,192.2,91.7z"/>
<path class="st8" d="M335.5,107.2c6.1-0.4,12.2-0.3,18.3-0.4c2.8-0.1,3.9,0.9,3.8,3.7c-0.2,3.5,0,6.9,0,10.8
	C349.2,118.6,341.3,114.7,335.5,107.2z"/>
<path class="st11" d="M359.6,85.4c-2.3,4.4-6.1,1.5-9.6,2.4c-3.6-3-8.3-3.8-11.2-7.8c-0.4-1.4-0.6-2.6-1-4
	c-3.8-2.4-7.9-1.2-11.7-1.8c-3.5-0.5-3.6-1.7-3.6-4.2s0-4.9,0.1-7.8c8,1.7,14.2,7.2,21.2,11.1c4.9,2.7,9,7,15.3,7.5
	C359.5,82.2,359.5,83.6,359.6,85.4z"/>
<path class="st17" d="M336.4,134.6c0.1,4,0.1,7.6,0.1,11.8c-2.5,2.3-4.4,0.5-6.3-0.6c-7.4-4.4-14.5-9.4-22.4-13.7
	c-0.3-1.9-0.3-3.7-0.2-5.8c1.2-0.4,2.4-0.5,3.5-0.5C324.9,125.8,324.9,125.8,336.4,134.6z"/>
<path class="st8" d="M357.3,219.5c-0.4,0.3-0.8,0.3-1.5,0.3c-0.1-0.5,0-1.3,0.4-1.5C356.8,218,357.3,218.5,357.3,219.5z"/>
<path class="st1" d="M322.7,36.8c-5.9-1.5-2.6-5.8-3-8.7c-0.4-3.1,2.6-2.3,4.4-2.3c6.1-0.2,8.8,3.8,6.2,9.4
	C328.8,38.4,325.6,36.2,322.7,36.8z"/>
<path class="st12" d="M307.5,132.3c5.1-0.1,8.6,3.5,12.8,5.8c5.2,2.8,9.6,7.1,15.8,8.7c0.3,9.2,1.5,7.9-8.2,8
	c-4.4-3.4-8.9-5.7-13.4-8.2c-2.4-1.4-4.8-2.9-6.8-5.5C307.5,138.1,307.5,135.4,307.5,132.3z"/>
<path class="st14" d="M307.5,141.3c6.5,4.2,14.5,6.5,20,13.1c-5.4,0.4-10.8,0.3-16.3,0.4c-2.8,0.1-3.9-0.9-3.7-3.7
	C307.6,148,307.5,144.9,307.5,141.3z"/>
<path class="st7" d="M338.5,80.2c3.7,1.8,8.1,3.2,10.9,7.2c-1.3,0.4-2.6,0.4-3.9,0.4C338.5,87.8,338.5,87.8,338.5,80.2z"/>
<rect x="8.5" y="232.8" class="st21" width="581" height="132"/>
<g>
	<path class="st10" d="M140.6,280.6l-8,10.3h-20.2c-13.9,0-24.2-8.8-24.2-20.5c0-11.8,10.3-19.7,24.2-19.7h28.1l-8,10.4h-20.2
		c-6.7,0-11.8,4-11.8,9.8c0,5.7,5,9.6,11.8,9.6H140.6z"/>
	<path class="st10" d="M188.4,280.6l-8,10.3h-35.5v-40.1h12.4v29.8H188.4z"/>
	<path class="st10" d="M248.4,270.8c0,14.3-9.8,20.8-29.3,20.8c-19.6,0-29.3-6.4-29.3-20.8c0-14.3,9.8-20.7,29.3-20.7
		C238.5,250.1,248.4,256.5,248.4,270.8z M236,270.8c0-8.6-4.5-10.3-17-10.3s-17,1.6-17,10.3s4.5,10.3,17,10.3S236,279.4,236,270.8z"
		/>
	<path class="st10" d="M306.8,273.4c0,12.1-8.3,18.2-25,18.2c-19.3,0-27.7-6.1-27.7-18.2v-22.6h12.4v22.6c0,5.9,2.5,7.9,15.3,7.9
		c9.5,0,12.5-2.2,12.5-7.9v-22.6h12.5V273.4z"/>
	<path class="st10" d="M340.7,290.9h-26.9v-25h12.5v14.7h14.4c6.9,0,11.9-3.8,11.9-9.6c0-5.6-5.2-9.8-11.9-9.8h-26.9l7.9-10.4h19
		c14,0,24.2,8.1,24.2,19.7C364.9,282.1,354.6,290.9,340.7,290.9z"/>
	<path class="st10" d="M398.6,250.8h14.7v40.1h-12.4v-29.7h-9.8L398.6,250.8z"/>
	<path class="st10" d="M470.9,270.8c0,14.3-8.6,20.8-25.6,20.8s-25.6-6.4-25.6-20.8c0-14.3,8.6-20.7,25.6-20.7
		S470.9,256.5,470.9,270.8z M458.7,270.8c0-8.6-3.5-10.3-13.4-10.3s-13.4,1.6-13.4,10.3s3.5,10.3,13.4,10.3S458.7,279.4,458.7,270.8
		z"/>
</g>
</svg>
