<svg width="203" height="182" viewBox="0 0 203 182" fill="none" xmlns="http://www.w3.org/2000/svg">
<circle cx="99" cy="91" r="91" fill="white"/>
<g clip-path="url(#clip0_241_40)">
<path d="M138.641 93.8583C138.606 93.9979 138.606 94.1026 138.571 94.1376C138.361 94.347 138.361 94.5564 138.257 94.8357C138.222 94.9404 138.187 94.9055 138.222 94.9055C137.837 95.2197 137.837 95.7084 137.593 96.232C137.558 96.3367 137.523 96.3367 137.523 96.3018C137.418 96.3367 137.313 96.4065 137.208 96.5811C137.174 96.6509 137.174 96.616 137.208 96.6509C135.496 96.9302 134.099 95.848 133.47 93.6139C133.505 93.195 133.47 92.9158 133.575 92.4969C133.645 92.3573 133.645 92.3922 133.645 92.3922C133.959 92.1827 133.819 91.8337 133.924 91.4148C133.994 91.31 133.994 91.3449 133.994 91.3449C134.937 89.0061 134.483 86.5975 134.064 84.1191C133.959 84.0143 133.994 84.0143 133.994 84.0493C133.819 83.77 133.889 83.4558 133.714 83.0718C133.61 83.002 133.645 83.002 133.645 83.002C133.54 82.8275 133.505 82.618 133.33 82.3388C132.072 80.384 130.814 78.5339 128.823 77.1725C128.683 76.963 128.613 76.8932 128.474 76.7536C128.404 76.7187 128.439 76.7187 128.404 76.7187C128.089 75.1827 128.334 73.6119 128.264 72.041C128.264 71.5523 128.439 71.2731 129.137 71.3429C133.575 73.1581 136.37 76.3696 138.222 80.6283C138.327 80.9425 138.361 81.1868 138.466 81.4661C138.536 81.5359 138.606 81.6406 138.571 81.6755C138.711 82.0595 138.676 82.4086 138.816 82.8275C138.92 82.8973 138.886 82.9322 138.886 82.8973C139.654 85.0616 139.305 87.3306 139.375 89.7043C139.375 90.193 139.375 90.5072 139.305 90.9959C139.27 91.1355 139.34 91.2053 139.305 91.2402C138.886 92.1129 138.92 92.9507 138.641 93.8583Z" fill="#E435CA"/>
<path d="M74.7013 105.622C65.6519 103.458 59.8169 97.8727 56.7422 89.2854C56.4976 88.5872 56.288 87.8542 56.0784 87.0164C56.1482 86.8419 56.2181 86.772 56.3928 86.6673C57.5808 86.6324 58.0699 87.4702 58.7338 88.0985C60.341 89.6345 61.8434 91.2751 63.9748 92.3922C65.582 94.347 67.1543 96.1622 69.2856 97.6283C70.5784 99.8275 72.4302 101.398 74.1073 103.109C74.6663 103.667 75.3651 104.121 75.4699 105.133C75.3302 105.517 75.0507 105.552 74.7013 105.622Z" fill="#2907BC"/>
<path d="M115.231 67.8173C115.161 67.6427 115.126 67.5729 115.092 67.4333C112.646 66.8748 110.165 67.2937 107.545 67.0842C107.055 65.1294 107.335 63.2444 107.23 61.2197C107.754 59.998 108.383 60.731 108.872 61.0452C110.34 62.0226 111.807 62.9302 113.38 63.7331C114.463 64.2916 115.022 64.1171 115.022 62.7906C115.022 62.3019 115.057 61.7434 115.755 61.3245C116.245 62.7906 115.86 64.2916 116.105 65.8275C116.21 65.9323 116.175 65.9323 116.175 65.9323C116.419 66.2115 116.804 66.0719 117.223 66.2115C119.145 68.4107 121.73 69.423 123.966 70.8891C124.316 71.0986 124.735 71.2033 125.014 71.6571C125.049 72.7043 125.049 73.6119 125.049 74.6592C124.525 75.8111 123.722 75.6017 122.988 75.2177C120.542 73.9959 118.341 72.4251 116 71.0637C115.546 70.7844 115.476 70.3306 115.476 69.8419C115.511 69.2136 115.441 68.5852 115.231 67.8173Z" fill="#9E20C6"/>
<path d="M120.647 51.4455C120.717 51.5852 120.787 51.6899 120.787 51.7597C122.254 52.5975 123.827 51.9342 125.504 52.2135C126.307 53.6447 125.818 55.1457 125.923 56.7166C125.049 58.1129 124.071 57.4496 123.198 56.9958C121.066 55.8439 118.97 54.5523 116.978 53.156C115.546 52.1437 113.729 51.8295 112.541 50.3285C112.541 47.3264 112.541 47.3264 115.336 47.3264C116.664 47.3264 117.992 47.3963 119.319 47.3264C120.333 47.2566 120.647 47.6755 120.577 48.618C120.507 49.4558 120.507 50.3983 120.647 51.4455Z" fill="#D42ECA"/>
<path d="M86.0566 48.9322C89.0964 46.8727 92.4856 45.9651 96.0145 45.5113C96.7831 45.4066 96.9229 45.7207 96.9229 46.3491C96.9229 46.4538 96.9578 46.5934 96.9229 46.6982C96.5036 48.0945 97.9012 49.9446 96.1542 50.8871C94.8615 51.5852 93.2892 51.655 91.6819 52.0041C91.2976 52.039 91.088 52.1437 90.7386 52.2485C90.6687 52.3532 90.6337 52.3183 90.6687 52.3183C87.7337 52.9466 86.5807 52.1088 86.0566 48.9322Z" fill="#DF37CA"/>
<path d="M116.175 65.7577C115.266 64.6406 116.21 63.1047 115.651 61.7433C115.616 61.7782 115.546 61.8131 115.546 61.8829C115.161 62.8254 116.105 64.3963 114.987 64.6755C113.939 64.9548 112.751 63.9774 111.702 63.349C110.34 62.5112 109.012 61.5687 107.545 60.6611C107.055 60.0677 107.335 59.4394 107.195 58.7063C109.886 57.9384 112.646 58.4271 115.406 58.3223C116.175 58.2874 116.105 58.9507 116.105 59.4743C116.14 61.5338 116.14 63.5585 116.175 65.7577Z" fill="#AE2FC7"/>
<path d="M106.147 45.616C106.322 46.1745 106.322 46.6632 106.322 47.3265C106.182 47.8152 106.252 48.1642 106.182 48.5133C106.007 49.5606 106.776 51.1314 105.693 51.5503C104.051 52.1437 102.164 52.0041 100.417 51.5154C99.8578 51.3757 99.9277 50.7823 99.9277 50.3285C99.9277 49.1068 99.9627 47.885 99.9277 46.6632C99.8928 45.7207 100.242 45.4415 101.151 45.4764C102.758 45.5811 104.365 45.4764 106.147 45.616Z" fill="#C22BC8"/>
<path d="M120.822 101.119C120.927 101.084 120.996 101.014 121.066 101.014C121.66 102.027 122.254 103.004 123.093 103.807C123.617 104.331 124.106 104.959 123.442 105.832C121.311 106.146 119.284 105.657 117.153 106.006C115.336 104.959 114.253 103.423 113.484 101.538C113.519 101.329 113.554 101.224 113.694 101.049C115.895 100.945 117.992 100.91 120.263 100.945C120.507 101.014 120.612 101.049 120.822 101.119Z" fill="#AB23C7"/>
<path d="M113.624 101.154C113.764 102.69 115.126 103.283 115.72 104.366C115.93 104.75 116.419 104.994 116.524 105.587C114.917 106.46 113.205 105.867 111.388 106.076C110.934 106.076 110.619 106.076 110.165 106.006C108.942 105.273 108.034 104.4 107.195 103.458C106.636 102.865 106.147 102.201 106.706 101.189C107.964 101.014 109.152 100.979 110.479 100.979C111.563 101.084 112.541 100.979 113.624 101.154Z" fill="#9E20C6"/>
<path d="M115.161 67.8522C115.336 67.922 115.651 68.2012 115.616 68.4107C115.406 70.924 117.572 71.4127 119.075 72.4251C120.298 73.2628 121.625 73.961 122.918 74.6941C123.477 75.0082 124.036 75.3224 124.805 75.0082C124.98 74.9384 125.049 74.8686 125.189 74.9035C125.294 75.1479 125.294 75.3224 125.294 75.5667C123.023 76.0904 120.787 75.7064 118.411 75.9507C118.271 76.0205 118.131 76.0904 118.061 76.0904C117.887 76.1253 117.817 76.1602 117.572 76.1951C116.245 75.6017 115.022 75.0431 114.113 74.0308C113.589 73.4723 112.925 73.4025 112.192 73.3676C110.759 73.3327 109.292 73.4374 107.719 73.2629C107.51 73.193 107.44 73.1232 107.23 72.9836C109.047 72.1807 111.073 72.5298 112.995 72.6345C114.812 72.7043 115.336 72.1109 115.092 70.4353C115.057 69.6325 115.126 68.8296 115.161 67.8522Z" fill="#8B20C2"/>
<path d="M75.3302 105.448C74.4916 103.423 72.6398 102.411 71.3121 100.91C70.5085 100.002 69.6 99.2341 69.3555 97.8378C72.2904 99.4435 75.4 100.7 78.9988 100.91C79.1735 101.014 79.1735 101.084 79.1037 101.259C78.5446 101.678 77.9157 101.503 77.2868 101.817C77.741 102.76 78.5796 103.283 79.2085 103.982C79.6627 104.54 80.3266 105.029 79.9073 106.006C79.4531 106.111 79.0687 106.146 78.5796 106.111C77.6012 105.832 76.7278 105.867 75.7145 105.797C75.5747 105.762 75.6097 105.762 75.6097 105.762C75.5398 105.692 75.4699 105.622 75.3302 105.448Z" fill="#370ABD"/>
<path d="M64.0796 92.3223C62.0181 92.7063 61.3543 90.6817 59.9567 89.809C58.6989 89.041 58.0001 87.5749 56.4976 86.8418C56.1483 86.5626 56.288 86.2484 56.1133 85.8993C56.0085 85.8295 55.9736 85.7597 55.9736 85.7248C55.8687 84.6776 55.9386 83.6303 55.7639 82.5133C55.9386 81.885 56.3579 81.6406 56.7073 81.885C58.3495 83.2115 60.2711 84.3285 61.3543 86.423C62.1579 88.4825 62.8916 90.4373 64.0796 92.3223Z" fill="#370ABD"/>
<path d="M134.029 101.049C133.365 102.097 132.387 102.62 131.408 103.283C130.954 103.458 130.64 103.667 130.221 103.947C130.151 104.016 130.081 104.086 130.046 104.051C128.124 104.645 126.866 104.261 125.783 102.62C125.189 101.782 125.015 100.91 126.202 100.177C126.272 100.072 126.307 100.107 126.307 100.072C126.482 100.002 126.692 99.9672 126.936 99.7926C127.006 99.6879 127.006 99.7228 126.971 99.7228C127.076 99.6879 127.181 99.653 127.321 99.4785C127.39 99.4435 127.39 99.4086 127.39 99.4086C127.53 99.2341 127.74 99.2341 128.019 99.0945C128.089 99.0247 128.159 98.9548 128.194 98.9898C128.404 98.9898 128.543 98.9548 128.683 98.7105C129.557 97.8378 130.395 97.0349 131.339 96.1971C132.002 96.5462 131.653 96.9651 131.443 97.3491C130.71 98.8152 130.919 99.3737 132.352 100.037C132.911 100.386 133.645 100.351 134.029 101.049Z" fill="#C92DC9"/>
<path d="M109.746 105.622C110.13 105.727 110.41 105.727 110.794 105.727C110.969 105.832 110.969 105.936 110.899 106.111C108.663 106.251 106.566 106.216 104.33 106.146C101.186 106.111 98.1808 106.146 95.0362 106.111C94.7567 105.936 94.6169 105.867 94.3723 105.727C93.5338 104.784 92.9049 103.842 92.0663 103.039C91.5422 102.55 91.2627 101.922 91.647 101.084C93.2543 100.979 94.7916 100.945 96.4687 100.945C96.7832 101.084 96.888 101.189 96.9928 101.363C98.7049 104.156 100.906 105.936 104.575 105.203C106.322 105.308 108.034 104.889 109.746 105.622Z" fill="#6D13C3"/>
<path d="M62.0531 74.9384C61.8434 76.3696 61.529 77.6961 61.1446 79.1273C60.4808 81.1519 59.9567 81.2566 58.3145 79.8254C57.0567 78.7084 55.9386 77.5564 56.5326 75.5318C56.847 73.8911 57.2663 72.425 58.1748 70.9589C58.4892 70.8542 58.7338 70.9589 58.7687 71.2032C59.0482 73.0883 60.376 74.0657 62.0531 74.9384Z" fill="#5510BE"/>
<path d="M134.099 101.119C133.295 100.945 132.596 100.735 131.933 100.456C130.29 99.7577 130.011 98.5708 131.129 97.2443C131.304 97.0349 131.373 96.7556 131.478 96.3717C131.443 96.232 131.478 96.2669 131.478 96.2669C131.618 96.232 131.723 96.1273 131.828 95.8829C131.863 95.7782 131.828 95.6735 131.863 95.6386C132.072 95.3593 132.247 95.115 132.526 94.8008C132.561 94.6961 132.526 94.6263 132.561 94.5914C132.701 94.4866 132.771 94.3819 132.876 94.1725C132.911 94.0677 132.911 93.963 132.946 93.8932C133.051 93.7536 133.12 93.6838 133.225 93.5092C133.26 93.4394 133.225 93.4743 133.225 93.4394C133.295 93.4045 133.365 93.3347 133.54 93.4045C134.099 95.1848 135.287 96.1622 137.069 96.6509C136.824 98.5708 135.426 99.7577 134.099 101.119Z" fill="#D42ECA"/>
<path d="M85.9867 48.8275C86.7205 49.2813 86.7205 50.1191 87.0699 50.7474C87.8735 52.2485 88.8518 52.7372 90.5638 52.3532C89.9 52.807 89.0614 53.2608 88.1181 53.7495C87.7687 53.8542 87.559 53.8891 87.2795 54.0637C87.2096 54.1684 87.2096 54.1335 87.2446 54.1335C87.1397 54.1684 87.0349 54.2382 86.9301 54.4127C86.8952 54.4825 86.8602 54.4476 86.8952 54.4825C86.8253 54.5524 86.7205 54.6222 86.5807 54.7618C86.5108 54.8316 86.4759 54.9014 86.406 54.8665C86.1964 54.8665 86.0916 54.9363 85.8819 55.1109C85.812 55.2156 85.812 55.1807 85.847 55.1807C85.7422 55.2505 85.6723 55.3203 85.5325 55.46C85.4976 55.5298 85.4976 55.4949 85.4976 55.5298C83.7855 56.1232 82.8072 55.7043 81.8289 54.308C80.8156 52.7721 81.9337 52.0041 82.912 51.0267C83.0169 50.7823 83.0867 50.7125 83.2614 50.6427C83.506 50.4682 83.7506 50.4682 83.9602 50.2587C84.4843 49.4559 85.2181 49.2115 85.9867 48.8275Z" fill="#D42ECA"/>
<path d="M62.1928 74.9384C59.7819 74.6243 58.6639 73.4374 58.3145 70.9241C58.6988 69.423 59.6072 68.2711 60.5506 67.0493C61.6337 68.4107 62.8916 69.5278 64.4988 70.4004C63.7651 71.9364 62.8217 73.2978 62.1928 74.9384Z" fill="#6D13C3"/>
<path d="M91.5421 101.014C91.4722 102.376 92.5554 102.899 93.2542 103.702C93.7433 104.261 94.0578 104.889 94.4771 105.622C92.8698 106.111 91.2277 105.797 89.4457 105.901C87.6638 104.715 86.0216 103.528 85.9867 101.154C87.8734 101.014 89.6554 100.98 91.5421 101.014Z" fill="#6110C2"/>
<path d="M88.8168 105.657C90.6686 105.727 92.4156 105.762 94.3373 105.762C94.5819 105.832 94.6867 105.901 94.8265 106.041C89.9698 106.146 85.0783 106.181 80.012 106.181C79.9072 104.54 78.4048 104.086 77.671 103.039C77.2867 102.515 76.3084 102.201 76.6228 101.468C76.8674 100.875 77.7759 101.294 78.3698 101.189C78.5445 101.154 78.7192 101.189 79.0337 101.189C79.3132 101.084 79.453 101.014 79.7325 100.979C80.2216 100.945 80.606 100.945 81.1301 101.014C81.724 101.363 81.8638 101.887 82.2132 102.306C83.7156 103.982 85.0783 105.867 87.8036 105.343C88.0481 105.238 88.4325 105.343 88.8168 105.657Z" fill="#430ABD"/>
<path d="M82.8422 50.8871C82.9121 51.0616 82.947 51.3409 82.8073 51.5154C82.2133 52.2136 81.235 52.7372 82.0386 53.8891C82.8073 55.0062 83.7506 55.7043 85.3229 55.4949C84.6591 56.2978 83.8554 57.1006 82.947 57.9035C82.5627 57.9733 82.4579 58.1828 82.353 58.5318C82.2832 58.7413 82.2482 58.846 82.0735 58.9507C81.8988 59.0206 81.7591 59.0904 81.6542 59.2998C81.6193 59.4045 81.6542 59.3696 81.6542 59.4045C79.8374 59.3696 78.1253 57.345 78.335 55.2505C78.4048 55.1109 78.4048 55.1458 78.4048 55.1458C78.5097 55.076 78.5795 54.9713 78.6844 54.7967C79.9073 53.2608 81.235 52.0041 82.8422 50.8871Z" fill="#C22BC8"/>
<path d="M56.4277 75.4969C56.6722 77.2423 57.4759 78.7084 58.9783 79.8604C59.9216 80.5935 60.5506 80.7331 60.9349 79.3019C61.0048 79.8255 60.9698 80.4538 60.9349 81.1869C60.7253 81.7105 60.7951 82.0945 60.865 82.5832C61.0747 83.8748 61.2843 85.0267 61.459 86.3532C59.7469 85.0267 58.0349 83.5257 56.1831 82.0247C55.3445 81.1171 55.9735 80.1048 55.8337 79.0226C55.7638 77.731 56.0433 76.6838 56.4277 75.4969Z" fill="#430ABD"/>
<path d="M126.132 100.072C125.853 100.84 125.224 101.643 126.098 102.411C127.111 103.318 127.984 104.68 129.871 104.051C128.578 105.133 126.971 105.692 124.979 105.762C124.595 105.657 124.42 105.762 124.176 105.867C123.966 105.901 123.826 105.901 123.617 105.797C123.687 104.61 122.778 104.156 122.184 103.493C121.59 102.865 120.926 102.306 121.136 101.154C122.743 100.77 124.42 100.63 126.132 100.072Z" fill="#B343C9"/>
<path d="M78.335 55.1458C78.5796 57.1006 79.8724 58.2874 81.5495 59.3347C81.1651 60.2423 80.641 61.1149 80.0121 62.0575C77.9157 62.5811 75.4001 61.08 74.841 59.1601C74.7362 58.7412 74.7013 58.3572 75.1904 58.0082C76.7977 57.5893 77.3567 56.2279 78.335 55.1458Z" fill="#AE2FC7"/>
<path d="M109.886 105.622C108.139 105.727 106.392 105.727 104.47 105.727C103.422 104.994 102.583 104.226 101.884 103.318C101.43 102.725 101.011 102.097 101.43 101.189C103.142 101.049 104.784 101.014 106.566 101.049C106.427 102.55 107.545 103.249 108.383 104.086C108.872 104.54 109.361 105.029 109.886 105.622Z" fill="#8B20C2"/>
<path d="M75.1204 57.8685C74.8409 59.7884 77.0771 61.9527 79.7674 62.1273C79.6277 62.616 79.1385 62.7207 78.5445 62.7556C77.8807 62.5112 77.3566 62.5811 76.7277 62.7556C76.6578 62.8603 76.5879 62.8603 76.553 62.8254C76.2036 62.8952 75.8542 62.965 75.4 62.9999C75.2951 63.0698 75.1204 63.1047 75.0506 63.1047C74.7012 63.3141 74.3168 63.1745 73.9325 63.4887C73.653 63.5934 73.4783 63.5934 73.1988 63.5236C72.3602 62.8952 71.6265 62.3367 71.0325 61.6386C70.2289 60.696 70.1241 59.8234 71.3469 58.9507C71.4518 58.8459 71.5216 58.7761 71.5566 58.811C71.8361 58.7761 72.0807 58.7063 72.3602 58.5667C72.6048 58.3921 72.7795 58.2874 73.059 58.2176C73.2337 58.2525 73.2686 58.2874 73.4084 58.2525C73.4783 58.1827 73.4783 58.1827 73.4783 58.1827C73.7229 57.9383 74.0373 58.0431 74.4216 57.9383C74.7361 57.9034 74.8759 57.8685 75.1204 57.8685Z" fill="#AB23C7"/>
<path d="M71.4518 64.4662C70.3687 65.3737 69.2157 66.1766 67.9229 67.0144C65.5819 67.6777 64.3591 67.0144 63.0663 64.3265C64.0795 63.0698 65.2675 62.1622 66.7 61.3594C67.9928 62.8255 69.2856 64.1869 71.4518 64.4662Z" fill="#8B20C2"/>
<path d="M62.9265 64.2218C64.2892 65.4785 65.1627 67.3635 67.6434 67.0144C66.8049 68.1664 65.7916 69.2834 64.6735 70.4703C62.8567 69.9117 61.1097 69.3532 60.7253 67.0842C61.3892 66.0719 62.088 65.1643 62.9265 64.2218Z" fill="#7D17C4"/>
<path d="M88.9217 105.587C88.2229 105.727 87.5241 105.727 86.8253 105.727C84.6591 105.727 81.829 103.493 81.235 101.154C82.7723 101.014 84.3097 100.979 85.9868 100.979C86.0916 102.515 87.3145 103.283 88.0832 104.296C88.3627 104.68 88.9916 104.819 88.9217 105.587Z" fill="#5510BE"/>
<path d="M99.9976 76.3347C99.8927 75.8809 99.8578 75.4271 99.8927 74.8336C101.535 74.2751 103.142 74.5893 104.889 74.5893C105.273 76.0903 105.134 77.5215 105.064 79.0574C103.736 79.5811 102.408 79.3018 101.116 79.3716C100.347 79.4065 100.137 78.9527 100.102 78.2895C100.067 77.6262 100.242 76.963 99.9976 76.3347Z" fill="#6110C2"/>
<path d="M101.36 101.014C101.395 102.341 102.199 103.109 103.002 103.947C103.457 104.435 104.086 104.784 104.26 105.622C103.876 105.727 103.457 105.657 103.037 105.762C99.7181 106.495 98.3904 103.877 96.6434 101.992C96.5036 101.852 96.5735 101.538 96.5386 101.189C98.1458 100.77 99.6832 101.014 101.36 101.014Z" fill="#7D17C4"/>
<path d="M71.5916 64.5708C68.8313 64.501 67.6434 63.733 66.8397 61.464C66.8048 61.3244 66.8397 61.3593 66.8397 61.3593C66.9795 61.3593 67.0843 61.2895 67.1891 61.08C68.3771 59.963 69.8446 59.579 71.312 58.9507C70.2638 60.4168 70.9626 61.4291 72.2205 62.3018C72.6048 62.5462 73.059 62.7207 73.1638 63.3839C73.2337 63.5585 73.3036 63.6283 73.2687 63.8028C73.1638 63.9076 73.094 63.9774 73.059 63.9425C72.7795 63.9774 72.5349 64.0472 72.2205 64.1868C72.1506 64.2915 72.1506 64.2566 72.1506 64.2566C72.1157 64.2915 72.0458 64.3265 71.8711 64.4312C71.8012 64.4661 71.6614 64.5708 71.5916 64.5708Z" fill="#9E20C6"/>
<path d="M114.358 42.2998C111.143 42.2998 111.178 42.2998 111.143 39.1581C111.143 37.8665 111.388 37.3429 112.855 37.3429C116.28 37.4127 116.804 38.0061 116.14 41.5318C115.93 42.7187 115.092 42.1601 114.358 42.2998Z" fill="#B343C9"/>
<path d="M117.468 76.195C117.642 76.0903 117.712 76.0903 117.887 76.0903C117.957 78.0801 117.887 80.0349 117.957 82.0246C117.992 83.0369 117.782 83.4558 116.629 83.4209C113.904 83.3162 111.143 83.3162 108.418 83.4209C107.16 83.4558 107.021 82.9671 107.021 81.9199C107.09 79.0226 107.055 76.0903 107.09 73.0185C107.125 72.8439 107.265 72.8788 107.37 72.8788C107.894 73.4024 107.894 74.0657 107.894 74.8337C107.929 75.9158 107.929 76.8583 107.894 77.9404C107.894 78.7782 107.894 79.4764 107.894 80.1745C107.894 82.4086 107.929 82.4435 110.27 82.4784C111.493 82.4784 112.716 82.4435 114.043 82.5133C114.393 82.5133 114.637 82.5133 114.847 82.5133C116.943 82.5133 116.943 82.5133 116.978 80.1745C117.083 78.8131 116.839 77.5215 117.468 76.195Z" fill="#5F1E9E"/>
<path d="M120.752 51.4456C120.018 50.7474 120.437 49.7351 120.402 48.7926C120.402 47.7454 120.018 47.3614 118.97 47.3963C117.537 47.4661 116.07 47.501 114.672 47.3963C113.1 47.2567 112.401 47.7803 112.681 49.386C112.716 49.6653 112.681 49.9446 112.716 50.3983C113.275 51.2361 113.17 52.0739 113.135 52.8768C113.1 53.9589 113.589 54.3778 114.602 54.5524C115.651 54.7269 116.804 54.4476 117.817 55.2854C116.454 55.4949 115.092 55.425 113.694 55.4949C112.681 55.5298 112.226 55.3203 112.261 54.1684C112.331 52.2135 112.331 50.2238 112.261 48.269C112.226 47.3963 112.506 47.0123 113.414 47.0472C115.441 47.117 117.467 47.117 119.494 47.0472C120.542 47.0123 120.787 47.4312 120.752 48.3737C120.717 49.3162 120.787 50.2936 120.752 51.4456Z" fill="#A635AE"/>
<path d="M106.252 45.5811C104.749 45.7208 103.177 45.6859 101.64 45.7208C101.255 45.7208 100.592 45.6859 100.487 45.8604C99.753 47.3614 100.172 49.0021 100.172 50.5729C100.172 51.5503 101.221 51.5154 101.919 51.5852C105.728 52.039 105.798 51.9692 106.217 47.5709C106.601 51.9692 106.601 52.0041 102.094 51.9692C99.2988 51.9692 99.7181 52.3183 99.6832 49.5955C99.6482 45.267 99.6832 45.267 103.946 45.267C104.714 45.3019 105.448 45.3717 106.252 45.5811Z" fill="#A635AE"/>
<path d="M125.329 74.8337C125.224 75.0082 125.189 75.0082 125.014 75.0082C124.91 73.961 124.91 72.8788 124.91 71.692C124.246 70.7495 124.421 69.807 124.386 68.8645C124.316 66.9446 124.246 66.8747 122.289 66.8049C120.682 66.7351 119.04 67.1191 117.363 66.386C116.943 66.2464 116.629 66.1766 116.28 66.002C118.76 65.8973 121.311 65.9671 123.827 65.8973C125.014 65.8624 125.469 66.1766 125.399 67.4333C125.294 69.8419 125.364 72.2505 125.329 74.8337Z" fill="#A635AE"/>
<path d="M125.539 57.3101C125.643 55.6695 125.643 54.1684 125.643 52.4929C125.678 52.2485 125.713 52.1787 125.853 52.074C126.587 54.5873 126.167 57.1705 126.063 59.8584C125.643 59.7187 125.504 59.3697 125.329 58.9159C125.189 58.2875 125.189 57.8337 125.539 57.3101Z" fill="#B343C9"/>
<path d="M104.26 106.146C106.252 106.146 108.383 106.146 110.619 106.111C112.925 105.692 115.092 105.971 117.328 106.041C113.1 106.181 108.733 106.181 104.26 106.146Z" fill="#301D9C"/>
<path d="M117.712 106.181C115.371 106.39 113.24 106.285 110.969 106.146C110.829 106.041 110.864 105.971 110.934 105.832C112.716 105.727 114.463 105.727 116.384 105.727C118.76 105.727 120.996 105.727 123.372 105.727C123.687 105.727 123.826 105.727 124.106 105.727C124.351 105.622 124.49 105.552 124.735 105.657C124.84 105.727 124.875 105.762 124.91 105.762C124.071 106.425 123.058 106.041 121.905 106.285C121.695 106.32 121.625 106.25 121.625 106.25C121.625 106.25 121.52 106.25 121.451 106.285C120.263 106.25 119.11 106.216 117.712 106.181Z" fill="#8B20C2"/>
<path d="M125.504 58.9507C125.923 59.1253 125.958 59.4045 125.958 59.8234C125.958 59.9281 125.958 59.963 125.923 59.963C123.477 60.3819 120.996 60.0678 118.411 60.0678C117.467 58.6715 118.096 57.2053 117.887 55.6345C117.887 55.46 117.922 55.46 117.922 55.46C118.655 55.46 118.586 56.0534 118.725 56.6468C118.795 59.1602 118.795 59.1602 121.94 59.1602C123.163 59.1602 124.281 59.23 125.504 58.9507Z" fill="#A635AE"/>
<path d="M99.8928 76.5093C100.033 76.0206 100.137 75.7064 100.242 75.3922C100.312 75.462 100.452 75.4969 100.452 75.5667C100.557 79.232 100.557 79.2321 104.889 79.1971C103.562 80.0349 101.919 79.4066 100.242 79.5113C99.9976 79.3368 99.9627 79.232 99.9627 78.9877C99.8928 78.1499 99.8928 77.4169 99.8928 76.5093Z" fill="#5F1E9E"/>
<path d="M55.7289 78.9877C56.3578 79.7207 55.9036 80.7331 56.0434 81.8152C56.0434 83.0719 56.0434 84.1889 56.0084 85.4805C55.3795 83.5257 55.7638 81.3265 55.7289 78.9877Z" fill="#5F1E9E"/>
<path d="M133.924 84.2588C134.937 86.458 135.042 88.8317 134.064 91.345C134.378 89.076 134.518 86.7372 133.924 84.2588Z" fill="#C92DC9"/>
<path d="M107.125 58.7761C107.649 59.1601 107.37 59.8234 107.44 60.5564C107.44 62.6509 107.44 64.6406 107.44 66.77C107.405 67.0143 107.37 67.0841 107.23 67.0492C107.125 64.2915 107.09 61.6036 107.125 58.7761Z" fill="#A635AE"/>
<path d="M107.195 67.1191C107.125 66.9795 107.3 66.9795 107.37 66.9446C109.92 67.0144 112.401 67.0842 114.987 67.2587C112.471 67.3286 109.851 67.2937 107.195 67.1191Z" fill="#5F1E9E"/>
<path d="M118.376 60.0677C120.682 59.9979 123.128 59.9979 125.748 59.963C123.442 60.3819 120.961 60.1026 118.376 60.0677Z" fill="#B343C9"/>
<path d="M139.34 90.1233C139.165 87.7844 139.445 85.5504 138.921 83.1766C140.039 85.1664 139.584 87.4703 139.584 89.8789C139.515 90.0883 139.445 90.1233 139.34 90.1233Z" fill="#C92DC9"/>
<path d="M129.207 71.3778C128.369 71.5174 128.404 72.1807 128.404 72.8439C128.404 74.0657 128.404 75.2526 128.404 76.6489C127.635 75.0431 128.124 73.193 128.124 71.3778C128.089 70.5749 128.753 71.1684 129.207 71.3778Z" fill="#A635AE"/>
<path d="M118.446 76.0555C120.472 75.2875 122.743 75.8809 125.119 75.7064C124.246 76.5442 123.023 75.9856 121.87 76.0904C120.787 76.1951 119.704 76.0904 118.446 76.0555Z" fill="#7D17C4"/>
<path d="M125.783 52.0041C125.888 52.1438 125.818 52.2136 125.678 52.3183C124.036 52.1787 122.429 52.6325 120.822 51.9692C122.394 51.8645 124.001 51.8994 125.783 52.0041Z" fill="#A635AE"/>
<path d="M104.994 74.5195C103.457 74.6592 101.849 74.6592 100.102 74.6941C101.535 73.7865 103.247 74.4148 104.994 74.5195Z" fill="#5F1E9E"/>
<path d="M75.6796 105.901C76.4832 105.762 77.3916 105.622 78.3699 106.006C77.5663 106.041 76.6579 106.006 75.6796 105.901Z" fill="#301D9C"/>
<path d="M138.676 93.8932C138.431 93.1253 138.711 92.3224 139.2 91.4846C139.305 92.2177 139.095 93.0206 138.676 93.8932Z" fill="#B343C9"/>
<path d="M113.729 101.189C112.751 101.224 111.807 101.189 110.724 101.084C111.563 100.98 112.506 100.945 113.589 100.98C113.764 100.98 113.764 101.119 113.729 101.189Z" fill="#B343C9"/>
<path d="M137.663 96.3018C137.453 95.848 137.523 95.3593 138.152 94.9753C138.257 95.4291 138.012 95.8131 137.663 96.3018Z" fill="#B343C9"/>
<path d="M121.346 106.251C121.486 106.285 121.59 106.285 121.695 106.285C121.625 105.971 121.451 106.181 121.346 106.251Z" fill="#301D9C"/>
<path d="M76.7976 62.8604C77.0771 62.2321 77.6711 62.3717 78.335 62.6161C77.9157 62.7906 77.4265 62.8255 76.7976 62.8604Z" fill="#9E20C6"/>
<path d="M130.255 104.016C130.325 103.632 130.57 103.353 131.164 103.318C130.954 103.528 130.675 103.772 130.255 104.016Z" fill="#B343C9"/>
<path d="M60.935 82.5483C60.5157 82.3389 60.5507 81.92 60.8302 81.3964C60.935 81.6756 60.935 82.0247 60.935 82.5483Z" fill="#5510BE"/>
<path d="M75.4349 63.1396C75.5398 62.7905 75.9241 62.7905 76.4133 62.8254C76.2735 63.1396 75.9241 63.1396 75.4349 63.1396Z" fill="#9E20C6"/>
<path d="M74.4567 57.9384C74.3868 58.2525 74.0724 58.2525 73.6531 58.2525C73.8278 58.1478 74.1073 58.0431 74.4567 57.9384Z" fill="#9E20C6"/>
<path d="M56.0084 85.9692C56.3578 86.0041 56.3928 86.2834 56.3928 86.7372C56.3928 86.8419 56.253 86.8768 56.1831 86.8768C56.0783 86.6325 56.0434 86.3532 56.0084 85.9692Z" fill="#5F1E9E"/>
<path d="M73.9675 63.5585C74.1073 63.1396 74.4217 63.1396 74.876 63.1745C74.9109 63.4189 74.7013 63.5236 74.3169 63.5236C74.1422 63.5236 74.1073 63.5934 73.9675 63.5585Z" fill="#9E20C6"/>
<path d="M138.955 82.8973C138.536 82.8275 138.536 82.4785 138.571 81.9897C138.711 82.1643 138.851 82.4435 138.955 82.8973Z" fill="#C92DC9"/>
<path d="M73.7927 63.4539C73.8975 63.4539 74.0722 63.4539 74.1421 63.4539C73.9674 63.5935 73.6879 63.6982 73.3036 63.8378C73.1987 63.768 73.1987 63.6982 73.1987 63.5586C73.3734 63.4888 73.5132 63.4888 73.7927 63.4539Z" fill="#8B20C2"/>
<path d="M132.457 94.7659C132.561 95.0451 132.387 95.2895 132.002 95.5687C132.072 95.3593 132.212 95.08 132.457 94.7659Z" fill="#C92DC9"/>
<path d="M75.1903 105.378C75.365 105.448 75.4698 105.552 75.5746 105.727C75.3301 105.797 75.0855 105.762 74.7361 105.692C74.771 105.587 74.9457 105.483 75.1903 105.378Z" fill="#301D9C"/>
<path d="M133.575 83.1766C133.959 83.2115 133.994 83.5257 133.959 84.0144C133.61 83.9446 133.61 83.5955 133.575 83.1766Z" fill="#C92DC9"/>
<path d="M133.645 93.3696C133.575 93.5093 133.505 93.5093 133.33 93.4744C133.295 93.1602 133.365 92.846 133.505 92.4969C133.645 92.7064 133.645 92.9857 133.645 93.3696Z" fill="#C92DC9"/>
<path d="M133.854 91.4497C133.924 91.6941 133.854 92.0082 133.714 92.3922C133.645 92.1479 133.714 91.8337 133.854 91.4497Z" fill="#C92DC9"/>
<path d="M139.27 90.193C139.27 90.0533 139.41 90.0184 139.48 90.0184C139.514 90.3675 139.514 90.7166 139.375 91.1704C139.27 90.9609 139.27 90.6468 139.27 90.193Z" fill="#B343C9"/>
<path d="M87.3144 54.1335C87.2795 53.8891 87.4891 53.7495 87.8735 53.7495C87.8036 53.8891 87.6289 53.9939 87.3144 54.1335Z" fill="#C22BC8"/>
<path d="M72.2904 64.2567C72.2904 64.0123 72.5 63.8727 72.8844 63.8727C72.8145 64.0123 72.6049 64.117 72.2904 64.2567Z" fill="#8B20C2"/>
<path d="M82.3879 58.5667C82.3879 58.3922 82.4928 58.1827 82.7024 57.9384C82.7373 58.1478 82.5976 58.3223 82.3879 58.5667Z" fill="#AE2FC7"/>
<path d="M79.6976 100.91C79.6277 101.014 79.4879 101.084 79.2434 101.154C79.1386 101.154 79.1385 101.049 79.1385 100.98C79.3132 100.91 79.453 100.875 79.6976 100.91Z" fill="#B343C9"/>
<path d="M126.866 99.7228C126.796 99.8275 126.657 99.9671 126.377 100.072C126.412 99.9671 126.587 99.8624 126.866 99.7228Z" fill="#B343C9"/>
<path d="M127.984 99.0945C127.914 99.1992 127.775 99.3388 127.495 99.4785C127.565 99.3388 127.705 99.1992 127.984 99.0945Z" fill="#B343C9"/>
<path d="M72.3602 58.5668C72.3602 58.8111 72.1506 58.9158 71.7662 58.9158C71.8361 58.7762 72.0458 58.6715 72.3602 58.5668Z" fill="#9E20C6"/>
<path d="M90.8085 52.3532C90.8085 52.1089 91.0181 52.0042 91.4374 52.0042C91.3326 52.1089 91.1229 52.2485 90.8085 52.3532Z" fill="#D42ECA"/>
<path d="M138.327 94.8706C138.292 94.731 138.327 94.5216 138.466 94.2423C138.501 94.4168 138.466 94.6263 138.327 94.8706Z" fill="#B343C9"/>
<path d="M83.8904 50.1191C83.8554 50.2239 83.6807 50.3984 83.4362 50.538C83.4711 50.4333 83.6458 50.2937 83.8904 50.1191Z" fill="#C22BC8"/>
<path d="M133.225 82.4784C133.33 82.5482 133.47 82.6878 133.61 82.9671C133.505 82.8973 133.365 82.7227 133.225 82.4784Z" fill="#C92DC9"/>
<path d="M138.536 81.5359C138.431 81.4661 138.326 81.2567 138.222 80.9425C138.326 81.0472 138.431 81.2218 138.536 81.5359Z" fill="#C92DC9"/>
<path d="M99.8927 78.9877C99.9626 79.0575 100.033 79.1971 100.067 79.4066C99.8229 79.4066 99.8578 79.232 99.8927 78.9877Z" fill="#6110C2"/>
<path d="M86.9301 54.4127C86.8952 54.3429 86.9651 54.2381 87.1398 54.1334C87.1747 54.2032 87.1048 54.308 86.9301 54.4127Z" fill="#C22BC8"/>
<path d="M71.906 64.4662C71.8711 64.3614 71.941 64.2916 72.1506 64.2218C72.1506 64.2916 72.0458 64.3963 71.906 64.4662Z" fill="#8B20C2"/>
<path d="M127.286 99.4784C127.286 99.5482 127.216 99.6529 127.041 99.7228C127.041 99.6529 127.111 99.5831 127.286 99.4784Z" fill="#B343C9"/>
<path d="M86.5458 54.7618C86.5109 54.692 86.6157 54.5873 86.7555 54.4825C86.7904 54.5175 86.7205 54.6222 86.5458 54.7618Z" fill="#C22BC8"/>
<path d="M78.6843 54.7269C78.7193 54.7967 78.6494 54.9015 78.5096 55.0411C78.4747 55.0062 78.5446 54.9015 78.6843 54.7269Z" fill="#AE2FC7"/>
<path d="M85.9169 55.1458C85.9169 55.0411 86.0217 54.9364 86.2313 54.8317C86.2313 54.9015 86.1265 55.0062 85.9169 55.1458Z" fill="#C22BC8"/>
<path d="M120.822 101.014C120.787 101.084 120.647 101.084 120.437 101.049C120.507 100.979 120.647 100.979 120.822 101.014Z" fill="#B343C9"/>
<path d="M85.5325 55.4599C85.4976 55.3901 85.5675 55.2854 85.7422 55.1458C85.7771 55.2505 85.7072 55.3552 85.5325 55.4599Z" fill="#C22BC8"/>
<path d="M128.613 98.7104C128.613 98.7803 128.543 98.9199 128.299 99.0595C128.299 98.9548 128.404 98.8501 128.613 98.7104Z" fill="#B343C9"/>
<path d="M73.4434 58.2526C73.4434 58.3224 73.3735 58.3573 73.2338 58.3573C73.2687 58.2875 73.3036 58.2526 73.4434 58.2526Z" fill="#9E20C6"/>
<path d="M137.243 96.6859C137.208 96.6161 137.278 96.5113 137.453 96.3717C137.488 96.4415 137.418 96.5462 137.243 96.6859Z" fill="#D42ECA"/>
<path d="M131.758 95.8131C131.793 95.8829 131.758 96.0226 131.583 96.232C131.548 96.1273 131.618 96.0226 131.758 95.8131Z" fill="#C92DC9"/>
<path d="M132.806 94.1376C132.841 94.2074 132.806 94.347 132.666 94.5216C132.631 94.4517 132.666 94.3121 132.806 94.1376Z" fill="#C92DC9"/>
<path d="M133.155 93.4744C133.225 93.5791 133.19 93.6838 133.016 93.7885C133.016 93.7536 133.051 93.614 133.155 93.4744Z" fill="#C92DC9"/>
<path d="M81.7241 59.3347C81.6892 59.2649 81.7591 59.1252 81.8988 58.9856C81.9338 59.0903 81.8988 59.195 81.7241 59.3347Z" fill="#AE2FC7"/>
<path d="M128.404 76.8583C128.473 76.8234 128.578 76.8932 128.718 77.0678C128.648 77.0678 128.508 76.998 128.404 76.8583Z" fill="#A635AE"/>
<path d="M67.1542 61.0103C67.1891 61.0801 67.1192 61.1848 66.9445 61.3244C66.9096 61.2546 66.9795 61.1499 67.1542 61.0103Z" fill="#8B20C2"/>
<path d="M117.223 66.4209C119.354 66.2813 121.486 66.3162 123.617 66.2813C124.595 66.2464 124.98 66.5955 124.945 67.5729C124.875 68.7946 124.945 69.9815 124.945 71.3429C122.01 70.4004 119.249 69.039 117.223 66.4209Z" fill="#AB23C7"/>
<path d="M125.643 58.8111C124.84 60.347 123.512 59.3347 122.289 59.6489C121.031 58.6016 119.389 58.3224 118.376 56.9261C118.236 56.4374 118.166 56.0185 118.026 55.5298C116.699 54.692 115.266 55.1109 113.938 54.9014C112.716 54.7269 112.681 54.308 112.681 53.4353C112.681 52.5626 112.681 51.7248 112.716 50.7125C115.511 51.306 117.677 53.2259 120.123 54.5873C121.835 55.5298 123.267 57.0308 125.469 57.2053C125.608 57.694 125.608 58.1828 125.643 58.8111Z" fill="#C92DC9"/>
<path d="M117.537 75.9857C117.572 77.382 117.572 78.6387 117.572 80.1048C116.699 80.9077 116.035 80.2793 115.371 79.8953C112.786 78.3594 110.305 76.614 107.545 75.113C107.44 74.4498 107.44 73.8214 107.475 73.0884C107.894 72.9487 108.313 72.9138 108.698 72.9138C113.519 72.9138 113.519 72.9138 117.537 75.9857Z" fill="#7D17C4"/>
<path d="M124.84 105.622C124.7 105.727 124.56 105.727 124.316 105.727C124.281 105.552 124.316 105.273 124.455 105.203C124.665 105.099 124.84 105.273 124.84 105.622Z" fill="#AB23C7"/>
<path d="M112.751 41.846C110.689 41.3223 111.842 39.8213 111.702 38.809C111.563 37.7269 112.611 38.0061 113.24 38.0061C115.371 37.9363 116.314 39.3326 115.406 41.2874C114.882 42.4045 113.764 41.6365 112.751 41.846Z" fill="#E435CA"/>
<path d="M107.44 75.1827C109.222 75.1478 110.445 76.4045 111.912 77.2074C113.729 78.1848 115.266 79.6858 117.432 80.2443C117.537 83.4558 117.957 83.002 114.567 83.0369C113.03 81.8501 111.458 81.0472 109.885 80.1745C109.047 79.6858 108.208 79.1622 107.51 78.2546C107.44 77.2074 107.44 76.2649 107.44 75.1827Z" fill="#6D13C3"/>
<path d="M107.44 78.3245C109.711 79.7906 112.506 80.5935 114.428 82.8974C112.541 83.037 110.654 83.0021 108.733 83.037C107.754 83.0719 107.37 82.7228 107.44 81.7454C107.475 80.6633 107.44 79.5811 107.44 78.3245Z" fill="#6110C2"/>
<path d="M118.271 56.9958C119.564 57.6242 121.101 58.1129 122.08 59.5092C121.625 59.6488 121.171 59.6488 120.717 59.6488C118.271 59.6488 118.271 59.6488 118.271 56.9958Z" fill="#C22BC8"/>
<path d="M49.1253 126.951L46.3302 130.546H39.2723C34.4157 130.546 30.8169 127.474 30.8169 123.39C30.8169 119.271 34.4157 116.513 39.2723 116.513H49.0904L46.2952 120.144H39.2374C36.8964 120.144 35.1145 121.54 35.1145 123.565C35.1145 125.554 36.8615 126.916 39.2374 126.916H49.1253V126.951Z" fill="#370ABD"/>
<path d="M65.8265 126.951L63.0313 130.546H50.6277V116.548H54.9602V126.951H65.8265Z" fill="#370ABD"/>
<path d="M86.7904 123.53C86.7904 128.522 83.3663 130.791 76.553 130.791C69.7048 130.791 66.3157 128.557 66.3157 123.53C66.3157 118.538 69.7398 116.304 76.553 116.304C83.3313 116.304 86.7904 118.538 86.7904 123.53ZM82.4578 123.53C82.4578 120.528 80.8856 119.934 76.5181 119.934C72.1506 119.934 70.5783 120.493 70.5783 123.53C70.5783 126.567 72.1506 127.125 76.5181 127.125C80.8856 127.125 82.4578 126.532 82.4578 123.53Z" fill="#370ABD"/>
<path d="M107.195 124.437C107.195 128.661 104.295 130.791 98.4603 130.791C91.7169 130.791 88.782 128.661 88.782 124.437V116.548H93.1145V124.437C93.1145 126.497 93.988 127.195 98.4603 127.195C101.78 127.195 102.828 126.427 102.828 124.437V116.548H107.195V124.437Z" fill="#370ABD"/>
<path d="M119.04 130.546H109.641V121.819H114.008V126.951H119.04C121.451 126.951 123.198 125.624 123.198 123.6C123.198 121.645 121.381 120.179 119.04 120.179H109.641L112.401 116.548H119.04C123.931 116.548 127.495 119.376 127.495 123.425C127.495 127.474 123.896 130.546 119.04 130.546Z" fill="#370ABD"/>
<path d="M139.27 116.548H144.406V130.546H140.074V120.179H136.649L139.27 116.548Z" fill="#370ABD"/>
<path d="M164.531 123.53C164.531 128.522 161.527 130.791 155.587 130.791C149.647 130.791 146.642 128.557 146.642 123.53C146.642 118.538 149.647 116.304 155.587 116.304C161.527 116.304 164.531 118.538 164.531 123.53ZM160.269 123.53C160.269 120.528 159.046 119.934 155.587 119.934C152.128 119.934 150.905 120.493 150.905 123.53C150.905 126.567 152.128 127.125 155.587 127.125C159.046 127.125 160.269 126.532 160.269 123.53Z" fill="#370ABD"/>
</g>
<defs>
<clipPath id="clip0_241_40">
<rect width="203" height="119" fill="white" transform="translate(0 29)"/>
</clipPath>
</defs>
</svg>
