<svg width="1440" height="234" viewBox="0 0 1440 234" fill="none" xmlns="http://www.w3.org/2000/svg">
<ellipse cx="1550.37" cy="-51.9641" rx="97.8778" ry="101.762" transform="rotate(171.553 1550.37 -51.9641)" fill="white"/>
<ellipse cx="1415.96" cy="37.1064" rx="139.825" ry="142.156" transform="rotate(171.553 1415.96 37.1064)" fill="white"/>
<ellipse cx="1255.82" cy="42.8266" rx="98.6546" ry="94.7706" transform="rotate(171.553 1255.82 42.8266)" fill="white"/>
<ellipse cx="1126.14" cy="-5.45284" rx="98.6546" ry="85.4489" transform="rotate(171.553 1126.14 -5.45284)" fill="white"/>
<ellipse cx="128.762" cy="142.156" rx="128.762" ry="142.156" transform="matrix(0.999993 0.0038566 0.0038566 -0.999993 -106.144 208.644)" fill="white"/>
<ellipse cx="90.8491" cy="94.7706" rx="90.8491" ry="94.7706" transform="matrix(0.999993 0.0038566 0.0038566 -0.999993 78.6656 144.105)" fill="white"/>
<ellipse cx="90.8491" cy="85.4489" rx="90.8491" ry="85.4489" transform="matrix(0.999993 0.0038566 0.0038566 -0.999993 190.552 68.4084)" fill="white"/>
</svg>
